<svg xmlns="http://www.w3.org/2000/svg" xmlns:xlink="http://www.w3.org/1999/xlink" width="64" height="64" viewBox="0 0 64 64" id="quote"><defs><path id="a" d="M.06 64V.04H64V64z"></path></defs><g fill="none" fill-rule="evenodd"><path fill="#FFFFFE" d="M43.327 22.28a5.413 5.413 0 0 0-.813-.567l-.028-.02c-.017-.007-.034-.011-.052-.021-.345-.189-.593-.278-.593-.278l.021.041c-.561-.223-1.15-.388-1.792-.388-2.838 0-5.135 2.352-5.135 5.254 0 2.902 2.297 5.254 5.135 5.254a4.98 4.98 0 0 0 2.493-.687c-.254 2.809-1.694 6.902-6.955 11.082a1.752 1.752 0 0 0-.3 2.424c.331.439.83.67 1.335.67.363 0 .725-.121 1.036-.364 6.46-5.134 8.074-10.409 8.291-13.932.365-4.505-1.022-6.871-2.288-8.111-.118-.12-.226-.247-.355-.357"></path><mask id="b" fill="#fff"><use xlink:href="#a"></use></mask><path fill="#FFFFFE" d="M26.424 22.28a5.36 5.36 0 0 0-.812-.567l-.028-.02c-.017-.007-.035-.011-.052-.021-.345-.189-.593-.278-.593-.278l.018.041c-.562-.223-1.151-.388-1.792-.388-2.835 0-5.136 2.352-5.136 5.254 0 2.902 2.298 5.254 5.136 5.254.91 0 1.75-.264 2.496-.683-.255 2.809-1.695 6.902-6.956 11.081a1.752 1.752 0 0 0-.299 2.424 1.664 1.664 0 0 0 2.37.306c6.461-5.134 8.075-10.408 8.291-13.932.37-4.508-1.021-6.874-2.287-8.114-.118-.12-.227-.247-.356-.357" mask="url(#b)"></path><path fill="#4C5665" d="M45.97 30.748c-.217 3.523-1.831 8.798-8.291 13.932a1.676 1.676 0 0 1-1.036.364 1.669 1.669 0 0 1-1.335-.67 1.752 1.752 0 0 1 .3-2.424c5.261-4.18 6.701-8.273 6.955-11.082a4.98 4.98 0 0 1-2.493.687c-2.838 0-5.135-2.352-5.135-5.254 0-2.902 2.297-5.254 5.135-5.254.642 0 1.231.165 1.792.388l-.021-.041s.248.089.593.278c.018.01.035.014.052.021l.028.02c.237.134.509.313.813.567.129.11.237.237.355.357 1.266 1.24 2.653 3.606 2.288 8.111zm-16.903.003c-.216 3.524-1.83 8.798-8.291 13.932a1.664 1.664 0 0 1-2.37-.306 1.752 1.752 0 0 1 .299-2.424c5.261-4.179 6.701-8.272 6.956-11.081-.746.419-1.586.683-2.496.683-2.838 0-5.136-2.352-5.136-5.254 0-2.902 2.301-5.254 5.136-5.254.641 0 1.23.165 1.792.388l-.018-.041s.248.089.593.278c.017.01.035.014.052.021l.028.02c.237.134.509.313.812.567.129.11.238.237.356.357 1.266 1.24 2.657 3.606 2.287 8.114zM32 0C14.327 0 0 14.327 0 32c0 17.673 14.327 32 32 32 17.673 0 32-14.327 32-32C64 14.327 49.673 0 32 0z" mask="url(#b)"></path></g></svg>